<mxfile host="app.diagrams.net" agent="Mozilla/5.0 (Windows NT 10.0; Win64; x64) AppleWebKit/537.36 (KHTML, like Gecko) Chrome/137.0.0.0 Safari/537.36 Edg/137.0.0.0" version="27.1.6">
  <diagram name="Page-1" id="7pu1NfHbcvYJk7FcLyUQ">
    <mxGraphModel dx="1498" dy="671" grid="1" gridSize="10" guides="1" tooltips="1" connect="1" arrows="1" fold="1" page="1" pageScale="1" pageWidth="850" pageHeight="1100" math="0" shadow="0">
      <root>
        <mxCell id="0" />
        <mxCell id="1" parent="0" />
        <mxCell id="VbQ0hRxTCKMoF3oSh6LO-31" value="Customer" style="swimlane;fontStyle=0;childLayout=stackLayout;horizontal=1;startSize=26;fillColor=none;horizontalStack=0;resizeParent=1;resizeParentMax=0;resizeLast=0;collapsible=1;marginBottom=0;html=1;strokeColor=default;align=center;verticalAlign=middle;fontFamily=Helvetica;fontSize=14;fontColor=default;" vertex="1" parent="1">
          <mxGeometry x="110" y="218" width="140" height="142" as="geometry" />
        </mxCell>
        <mxCell id="VbQ0hRxTCKMoF3oSh6LO-32" value="_id (PK)" style="text;strokeColor=none;fillColor=none;align=left;verticalAlign=top;spacingLeft=4;spacingRight=4;overflow=hidden;rotatable=0;points=[[0,0.5],[1,0.5]];portConstraint=eastwest;whiteSpace=wrap;html=1;fontFamily=Helvetica;fontSize=14;fontColor=default;fontStyle=0;horizontal=1;" vertex="1" parent="VbQ0hRxTCKMoF3oSh6LO-31">
          <mxGeometry y="26" width="140" height="26" as="geometry" />
        </mxCell>
        <mxCell id="VbQ0hRxTCKMoF3oSh6LO-33" value="name" style="text;strokeColor=none;fillColor=none;align=left;verticalAlign=top;spacingLeft=4;spacingRight=4;overflow=hidden;rotatable=0;points=[[0,0.5],[1,0.5]];portConstraint=eastwest;whiteSpace=wrap;html=1;fontFamily=Helvetica;fontSize=14;fontColor=default;fontStyle=0;horizontal=1;" vertex="1" parent="VbQ0hRxTCKMoF3oSh6LO-31">
          <mxGeometry y="52" width="140" height="26" as="geometry" />
        </mxCell>
        <mxCell id="VbQ0hRxTCKMoF3oSh6LO-34" value="email&amp;nbsp;" style="text;strokeColor=none;fillColor=none;align=left;verticalAlign=top;spacingLeft=4;spacingRight=4;overflow=hidden;rotatable=0;points=[[0,0.5],[1,0.5]];portConstraint=eastwest;whiteSpace=wrap;html=1;fontFamily=Helvetica;fontSize=14;fontColor=default;fontStyle=0;horizontal=1;" vertex="1" parent="VbQ0hRxTCKMoF3oSh6LO-31">
          <mxGeometry y="78" width="140" height="32" as="geometry" />
        </mxCell>
        <mxCell id="VbQ0hRxTCKMoF3oSh6LO-49" value="password" style="text;strokeColor=none;fillColor=none;align=left;verticalAlign=top;spacingLeft=4;spacingRight=4;overflow=hidden;rotatable=0;points=[[0,0.5],[1,0.5]];portConstraint=eastwest;whiteSpace=wrap;html=1;fontFamily=Helvetica;fontSize=14;fontColor=default;fontStyle=0;horizontal=1;" vertex="1" parent="VbQ0hRxTCKMoF3oSh6LO-31">
          <mxGeometry y="110" width="140" height="32" as="geometry" />
        </mxCell>
        <mxCell id="VbQ0hRxTCKMoF3oSh6LO-36" value="Ride" style="swimlane;fontStyle=0;childLayout=stackLayout;horizontal=1;startSize=26;fillColor=none;horizontalStack=0;resizeParent=1;resizeParentMax=0;resizeLast=0;collapsible=1;marginBottom=0;html=1;strokeColor=default;align=center;verticalAlign=middle;fontFamily=Helvetica;fontSize=14;fontColor=default;" vertex="1" parent="1">
          <mxGeometry x="320" y="170" width="240" height="246" as="geometry" />
        </mxCell>
        <mxCell id="VbQ0hRxTCKMoF3oSh6LO-37" value="_id (PK)" style="text;strokeColor=none;fillColor=none;align=left;verticalAlign=top;spacingLeft=4;spacingRight=4;overflow=hidden;rotatable=0;points=[[0,0.5],[1,0.5]];portConstraint=eastwest;whiteSpace=wrap;html=1;fontFamily=Helvetica;fontSize=14;fontColor=default;fontStyle=0;horizontal=1;" vertex="1" parent="VbQ0hRxTCKMoF3oSh6LO-36">
          <mxGeometry y="26" width="240" height="26" as="geometry" />
        </mxCell>
        <mxCell id="VbQ0hRxTCKMoF3oSh6LO-38" value="pickup" style="text;strokeColor=none;fillColor=none;align=left;verticalAlign=top;spacingLeft=4;spacingRight=4;overflow=hidden;rotatable=0;points=[[0,0.5],[1,0.5]];portConstraint=eastwest;whiteSpace=wrap;html=1;fontFamily=Helvetica;fontSize=14;fontColor=default;fontStyle=0;horizontal=1;" vertex="1" parent="VbQ0hRxTCKMoF3oSh6LO-36">
          <mxGeometry y="52" width="240" height="26" as="geometry" />
        </mxCell>
        <mxCell id="VbQ0hRxTCKMoF3oSh6LO-39" value="destination" style="text;strokeColor=none;fillColor=none;align=left;verticalAlign=top;spacingLeft=4;spacingRight=4;overflow=hidden;rotatable=0;points=[[0,0.5],[1,0.5]];portConstraint=eastwest;whiteSpace=wrap;html=1;fontFamily=Helvetica;fontSize=14;fontColor=default;fontStyle=0;horizontal=1;" vertex="1" parent="VbQ0hRxTCKMoF3oSh6LO-36">
          <mxGeometry y="78" width="240" height="32" as="geometry" />
        </mxCell>
        <mxCell id="VbQ0hRxTCKMoF3oSh6LO-60" value="driver (FK --&amp;gt; Driver._id)" style="text;strokeColor=none;fillColor=none;align=left;verticalAlign=top;spacingLeft=4;spacingRight=4;overflow=hidden;rotatable=0;points=[[0,0.5],[1,0.5]];portConstraint=eastwest;whiteSpace=wrap;html=1;fontFamily=Helvetica;fontSize=14;fontColor=default;fontStyle=0;horizontal=1;" vertex="1" parent="VbQ0hRxTCKMoF3oSh6LO-36">
          <mxGeometry y="110" width="240" height="40" as="geometry" />
        </mxCell>
        <mxCell id="VbQ0hRxTCKMoF3oSh6LO-63" value="vehicle (FK --&amp;gt; Driver.licensePlate)" style="text;strokeColor=none;fillColor=none;align=left;verticalAlign=top;spacingLeft=4;spacingRight=4;overflow=hidden;rotatable=0;points=[[0,0.5],[1,0.5]];portConstraint=eastwest;whiteSpace=wrap;html=1;fontFamily=Helvetica;fontSize=14;fontColor=default;fontStyle=0;horizontal=1;" vertex="1" parent="VbQ0hRxTCKMoF3oSh6LO-36">
          <mxGeometry y="150" width="240" height="32" as="geometry" />
        </mxCell>
        <mxCell id="VbQ0hRxTCKMoF3oSh6LO-62" value="passenger (FK --&amp;gt; Customer._id)" style="text;strokeColor=none;fillColor=none;align=left;verticalAlign=top;spacingLeft=4;spacingRight=4;overflow=hidden;rotatable=0;points=[[0,0.5],[1,0.5]];portConstraint=eastwest;whiteSpace=wrap;html=1;fontFamily=Helvetica;fontSize=14;fontColor=default;fontStyle=0;horizontal=1;" vertex="1" parent="VbQ0hRxTCKMoF3oSh6LO-36">
          <mxGeometry y="182" width="240" height="32" as="geometry" />
        </mxCell>
        <mxCell id="VbQ0hRxTCKMoF3oSh6LO-61" value="status&amp;nbsp;" style="text;strokeColor=none;fillColor=none;align=left;verticalAlign=top;spacingLeft=4;spacingRight=4;overflow=hidden;rotatable=0;points=[[0,0.5],[1,0.5]];portConstraint=eastwest;whiteSpace=wrap;html=1;fontFamily=Helvetica;fontSize=14;fontColor=default;fontStyle=0;horizontal=1;" vertex="1" parent="VbQ0hRxTCKMoF3oSh6LO-36">
          <mxGeometry y="214" width="240" height="32" as="geometry" />
        </mxCell>
        <mxCell id="VbQ0hRxTCKMoF3oSh6LO-44" value="Driver" style="swimlane;fontStyle=0;childLayout=stackLayout;horizontal=1;startSize=26;fillColor=none;horizontalStack=0;resizeParent=1;resizeParentMax=0;resizeLast=0;collapsible=1;marginBottom=0;html=1;strokeColor=default;align=center;verticalAlign=middle;fontFamily=Helvetica;fontSize=14;fontColor=default;" vertex="1" parent="1">
          <mxGeometry x="620" y="170" width="140" height="238" as="geometry" />
        </mxCell>
        <mxCell id="VbQ0hRxTCKMoF3oSh6LO-45" value="_id (PK)" style="text;strokeColor=none;fillColor=none;align=left;verticalAlign=top;spacingLeft=4;spacingRight=4;overflow=hidden;rotatable=0;points=[[0,0.5],[1,0.5]];portConstraint=eastwest;whiteSpace=wrap;html=1;fontFamily=Helvetica;fontSize=14;fontColor=default;fontStyle=0;horizontal=1;" vertex="1" parent="VbQ0hRxTCKMoF3oSh6LO-44">
          <mxGeometry y="26" width="140" height="26" as="geometry" />
        </mxCell>
        <mxCell id="VbQ0hRxTCKMoF3oSh6LO-46" value="name" style="text;strokeColor=none;fillColor=none;align=left;verticalAlign=top;spacingLeft=4;spacingRight=4;overflow=hidden;rotatable=0;points=[[0,0.5],[1,0.5]];portConstraint=eastwest;whiteSpace=wrap;html=1;fontFamily=Helvetica;fontSize=14;fontColor=default;fontStyle=0;horizontal=1;" vertex="1" parent="VbQ0hRxTCKMoF3oSh6LO-44">
          <mxGeometry y="52" width="140" height="26" as="geometry" />
        </mxCell>
        <mxCell id="VbQ0hRxTCKMoF3oSh6LO-47" value="email" style="text;strokeColor=none;fillColor=none;align=left;verticalAlign=top;spacingLeft=4;spacingRight=4;overflow=hidden;rotatable=0;points=[[0,0.5],[1,0.5]];portConstraint=eastwest;whiteSpace=wrap;html=1;fontFamily=Helvetica;fontSize=14;fontColor=default;fontStyle=0;horizontal=1;" vertex="1" parent="VbQ0hRxTCKMoF3oSh6LO-44">
          <mxGeometry y="78" width="140" height="32" as="geometry" />
        </mxCell>
        <mxCell id="VbQ0hRxTCKMoF3oSh6LO-50" value="password" style="text;strokeColor=none;fillColor=none;align=left;verticalAlign=top;spacingLeft=4;spacingRight=4;overflow=hidden;rotatable=0;points=[[0,0.5],[1,0.5]];portConstraint=eastwest;whiteSpace=wrap;html=1;fontFamily=Helvetica;fontSize=14;fontColor=default;fontStyle=0;horizontal=1;" vertex="1" parent="VbQ0hRxTCKMoF3oSh6LO-44">
          <mxGeometry y="110" width="140" height="32" as="geometry" />
        </mxCell>
        <mxCell id="VbQ0hRxTCKMoF3oSh6LO-59" value="licensePlate" style="text;strokeColor=none;fillColor=none;align=left;verticalAlign=top;spacingLeft=4;spacingRight=4;overflow=hidden;rotatable=0;points=[[0,0.5],[1,0.5]];portConstraint=eastwest;whiteSpace=wrap;html=1;fontFamily=Helvetica;fontSize=14;fontColor=default;fontStyle=0;horizontal=1;" vertex="1" parent="VbQ0hRxTCKMoF3oSh6LO-44">
          <mxGeometry y="142" width="140" height="32" as="geometry" />
        </mxCell>
        <mxCell id="VbQ0hRxTCKMoF3oSh6LO-51" value="status" style="text;strokeColor=none;fillColor=none;align=left;verticalAlign=top;spacingLeft=4;spacingRight=4;overflow=hidden;rotatable=0;points=[[0,0.5],[1,0.5]];portConstraint=eastwest;whiteSpace=wrap;html=1;fontFamily=Helvetica;fontSize=14;fontColor=default;fontStyle=0;horizontal=1;" vertex="1" parent="VbQ0hRxTCKMoF3oSh6LO-44">
          <mxGeometry y="174" width="140" height="32" as="geometry" />
        </mxCell>
        <mxCell id="VbQ0hRxTCKMoF3oSh6LO-53" value="earning" style="text;strokeColor=none;fillColor=none;align=left;verticalAlign=top;spacingLeft=4;spacingRight=4;overflow=hidden;rotatable=0;points=[[0,0.5],[1,0.5]];portConstraint=eastwest;whiteSpace=wrap;html=1;fontFamily=Helvetica;fontSize=14;fontColor=default;fontStyle=0;horizontal=1;" vertex="1" parent="VbQ0hRxTCKMoF3oSh6LO-44">
          <mxGeometry y="206" width="140" height="32" as="geometry" />
        </mxCell>
        <mxCell id="VbQ0hRxTCKMoF3oSh6LO-54" value="Admin" style="swimlane;fontStyle=0;childLayout=stackLayout;horizontal=1;startSize=26;fillColor=none;horizontalStack=0;resizeParent=1;resizeParentMax=0;resizeLast=0;collapsible=1;marginBottom=0;html=1;strokeColor=default;align=center;verticalAlign=middle;fontFamily=Helvetica;fontSize=14;fontColor=default;" vertex="1" parent="1">
          <mxGeometry x="365" y="470" width="140" height="142" as="geometry" />
        </mxCell>
        <mxCell id="VbQ0hRxTCKMoF3oSh6LO-55" value="_id (PK)" style="text;strokeColor=none;fillColor=none;align=left;verticalAlign=top;spacingLeft=4;spacingRight=4;overflow=hidden;rotatable=0;points=[[0,0.5],[1,0.5]];portConstraint=eastwest;whiteSpace=wrap;html=1;fontFamily=Helvetica;fontSize=14;fontColor=default;fontStyle=0;horizontal=1;" vertex="1" parent="VbQ0hRxTCKMoF3oSh6LO-54">
          <mxGeometry y="26" width="140" height="26" as="geometry" />
        </mxCell>
        <mxCell id="VbQ0hRxTCKMoF3oSh6LO-56" value="name" style="text;strokeColor=none;fillColor=none;align=left;verticalAlign=top;spacingLeft=4;spacingRight=4;overflow=hidden;rotatable=0;points=[[0,0.5],[1,0.5]];portConstraint=eastwest;whiteSpace=wrap;html=1;fontFamily=Helvetica;fontSize=14;fontColor=default;fontStyle=0;horizontal=1;" vertex="1" parent="VbQ0hRxTCKMoF3oSh6LO-54">
          <mxGeometry y="52" width="140" height="26" as="geometry" />
        </mxCell>
        <mxCell id="VbQ0hRxTCKMoF3oSh6LO-57" value="email&amp;nbsp;" style="text;strokeColor=none;fillColor=none;align=left;verticalAlign=top;spacingLeft=4;spacingRight=4;overflow=hidden;rotatable=0;points=[[0,0.5],[1,0.5]];portConstraint=eastwest;whiteSpace=wrap;html=1;fontFamily=Helvetica;fontSize=14;fontColor=default;fontStyle=0;horizontal=1;" vertex="1" parent="VbQ0hRxTCKMoF3oSh6LO-54">
          <mxGeometry y="78" width="140" height="32" as="geometry" />
        </mxCell>
        <mxCell id="VbQ0hRxTCKMoF3oSh6LO-58" value="password" style="text;strokeColor=none;fillColor=none;align=left;verticalAlign=top;spacingLeft=4;spacingRight=4;overflow=hidden;rotatable=0;points=[[0,0.5],[1,0.5]];portConstraint=eastwest;whiteSpace=wrap;html=1;fontFamily=Helvetica;fontSize=14;fontColor=default;fontStyle=0;horizontal=1;" vertex="1" parent="VbQ0hRxTCKMoF3oSh6LO-54">
          <mxGeometry y="110" width="140" height="32" as="geometry" />
        </mxCell>
        <mxCell id="VbQ0hRxTCKMoF3oSh6LO-72" value="" style="edgeStyle=orthogonalEdgeStyle;fontSize=12;html=1;endArrow=ERzeroToMany;endFill=1;startArrow=ERzeroToMany;rounded=0;strokeColor=default;align=center;verticalAlign=middle;fontFamily=Helvetica;fontColor=default;fontStyle=0;labelBackgroundColor=default;horizontal=1;exitX=0.427;exitY=0.004;exitDx=0;exitDy=0;exitPerimeter=0;entryX=0.574;entryY=0.003;entryDx=0;entryDy=0;entryPerimeter=0;" edge="1" parent="1" source="VbQ0hRxTCKMoF3oSh6LO-31">
          <mxGeometry width="100" height="100" relative="1" as="geometry">
            <mxPoint x="160.02000000000004" y="217.00599999999997" as="sourcePoint" />
            <mxPoint x="686.5400000000001" y="170.714" as="targetPoint" />
            <Array as="points">
              <mxPoint x="170" y="140" />
              <mxPoint x="687" y="140" />
            </Array>
          </mxGeometry>
        </mxCell>
        <mxCell id="VbQ0hRxTCKMoF3oSh6LO-73" value="" style="edgeStyle=orthogonalEdgeStyle;fontSize=12;html=1;endArrow=ERzeroToOne;startArrow=ERmandOne;rounded=0;strokeColor=default;align=center;verticalAlign=middle;fontFamily=Helvetica;fontColor=default;fontStyle=0;labelBackgroundColor=default;horizontal=1;exitX=-0.002;exitY=0.052;exitDx=0;exitDy=0;exitPerimeter=0;entryX=1.005;entryY=0.077;entryDx=0;entryDy=0;entryPerimeter=0;" edge="1" parent="1" source="VbQ0hRxTCKMoF3oSh6LO-36" target="VbQ0hRxTCKMoF3oSh6LO-31">
          <mxGeometry width="100" height="100" relative="1" as="geometry">
            <mxPoint x="360" y="310" as="sourcePoint" />
            <mxPoint x="460" y="210" as="targetPoint" />
          </mxGeometry>
        </mxCell>
        <mxCell id="VbQ0hRxTCKMoF3oSh6LO-75" value="" style="edgeStyle=orthogonalEdgeStyle;fontSize=12;html=1;endArrow=ERzeroToMany;startArrow=ERmandOne;rounded=0;strokeColor=default;align=center;verticalAlign=middle;fontFamily=Helvetica;fontColor=default;fontStyle=0;labelBackgroundColor=default;horizontal=1;entryX=-0.003;entryY=0.053;entryDx=0;entryDy=0;entryPerimeter=0;exitX=0.999;exitY=0.054;exitDx=0;exitDy=0;exitPerimeter=0;" edge="1" parent="1" source="VbQ0hRxTCKMoF3oSh6LO-36" target="VbQ0hRxTCKMoF3oSh6LO-44">
          <mxGeometry width="100" height="100" relative="1" as="geometry">
            <mxPoint x="505" y="180" as="sourcePoint" />
            <mxPoint x="605" y="80" as="targetPoint" />
          </mxGeometry>
        </mxCell>
        <mxCell id="VbQ0hRxTCKMoF3oSh6LO-76" value="" style="edgeStyle=orthogonalEdgeStyle;fontSize=12;html=1;endArrow=ERzeroToMany;startArrow=ERmandOne;rounded=0;strokeColor=default;align=center;verticalAlign=middle;fontFamily=Helvetica;fontColor=default;fontStyle=0;labelBackgroundColor=default;horizontal=1;entryX=-0.002;entryY=0.115;entryDx=0;entryDy=0;entryPerimeter=0;exitX=-0.003;exitY=0.075;exitDx=0;exitDy=0;exitPerimeter=0;" edge="1" parent="1" source="VbQ0hRxTCKMoF3oSh6LO-54">
          <mxGeometry width="100" height="100" relative="1" as="geometry">
            <mxPoint x="360" y="480" as="sourcePoint" />
            <mxPoint x="109.72000000000003" y="230.02999999999997" as="targetPoint" />
            <Array as="points">
              <mxPoint x="70" y="481" />
              <mxPoint x="70" y="230" />
            </Array>
          </mxGeometry>
        </mxCell>
        <mxCell id="VbQ0hRxTCKMoF3oSh6LO-77" value="" style="edgeStyle=orthogonalEdgeStyle;fontSize=12;html=1;endArrow=ERzeroToMany;startArrow=ERmandOne;rounded=0;strokeColor=default;align=center;verticalAlign=middle;fontFamily=Helvetica;fontColor=default;fontStyle=0;labelBackgroundColor=default;horizontal=1;exitX=1.018;exitY=0.087;exitDx=0;exitDy=0;exitPerimeter=0;" edge="1" parent="1">
          <mxGeometry width="100" height="100" relative="1" as="geometry">
            <mxPoint x="505" y="478.78400000000005" as="sourcePoint" />
            <mxPoint x="760" y="180" as="targetPoint" />
            <Array as="points">
              <mxPoint x="790" y="479" />
              <mxPoint x="790" y="180" />
            </Array>
          </mxGeometry>
        </mxCell>
        <mxCell id="VbQ0hRxTCKMoF3oSh6LO-79" value="&lt;font style=&quot;font-size: 24px;&quot;&gt;ERD DIAGRAM FOR MAXIM RIDE-HAILING&amp;nbsp;&lt;/font&gt;" style="text;html=1;align=center;verticalAlign=middle;whiteSpace=wrap;rounded=0;fontFamily=Helvetica;fontSize=12;fontColor=default;fontStyle=0;labelBackgroundColor=default;horizontal=1;" vertex="1" parent="1">
          <mxGeometry x="160" y="70" width="530" height="30" as="geometry" />
        </mxCell>
      </root>
    </mxGraphModel>
  </diagram>
</mxfile>
